<?xml version="1.0" encoding="UTF-8"?>
<svg width="478px" height="156px" viewBox="0 0 478 156" version="1.1" xmlns="http://www.w3.org/2000/svg" xmlns:xlink="http://www.w3.org/1999/xlink">
    <title>vectorlogo</title>
    <g id="logo" stroke="none" stroke-width="1" fill="none" fill-rule="evenodd">
        <g id="Group" transform="translate(0.000000, -1.500000)">
            <g id="Globe" transform="translate(34.500000, 35.500000)" fill="#7FA2BB" fill-rule="nonzero">
                <path d="M30.1364767,66.1497289 C22.8636822,65.2493423 16.0483506,62.1391637 10.9494442,57.393723 L8.86988158,55.45832 L12.8257166,53.5610744 C17.1477456,51.4881986 20.786396,50.1015936 24.2332126,49.2139448 C26.5865017,48.6079068 30.2966057,47.9459763 31.8234079,47.859755 L32.7361384,47.8082132 L32.7582887,55.4006356 C32.7704901,59.5764677 32.773463,63.73214 32.7649159,64.6354598 L32.7494113,66.2778636 L31.7332746,66.2497392 C31.1744003,66.2342825 30.455847,66.1892677 30.1364911,66.1497289 L30.1364767,66.1497289 Z M35.0719925,56.9865563 L35.0719925,47.6952489 L36.144144,47.6952489 C39.25405,47.6952489 43.6117887,48.4601649 47.4371575,49.6775206 C51.3889436,50.9351059 58.8785983,54.6914119 58.8785983,55.415778 C58.8785983,55.762275 56.0090344,58.3919535 54.2034258,59.7001196 C49.6222266,63.0192083 44.1949543,65.2246095 38.7245952,65.9900301 C37.5931856,66.1483394 36.3084991,66.2778636 35.8697391,66.2778636 L35.0719925,66.2778636 L35.0719925,56.9865563 Z M3.53421245,47.6288951 C1.67748695,43.8820933 0.545063677,39.8511541 0.164822034,35.6353186 L0.0674765887,34.5560263 L16.4084367,34.5560263 L32.7493968,34.5560263 L32.7516265,35.1660607 C32.7688199,39.8777956 32.7649514,43.3595548 32.740021,45.6113385 C32.5127023,45.5797413 32.0243569,45.5797413 31.2749849,45.6113385 C28.6829978,45.7206295 21.2825912,47.6254774 15.9105822,49.8060537 C13.8898268,50.6263096 8.94031011,53.0039433 8.15790897,53.530259 C7.88589998,53.7132391 7.56957525,53.805563 7.45496516,53.7354251 C6.95205589,53.4276579 4.56685438,49.7127287 3.53421245,47.6288951 Z M49.9753148,48.277381 C45.6491738,46.6774812 40.3523632,45.6305139 36.5843078,45.6305139 L35.0719925,45.6305139 L35.0719925,40.0932701 L35.0719925,34.5560263 L51.4423426,34.5560263 L67.8126928,34.5560263 L67.6874894,35.8230218 C67.244365,40.3072357 66.0214966,44.5256019 64.0553853,48.35221 C63.4252331,49.5786656 61.605146,52.3666715 60.9067095,53.1753488 L60.4697188,53.6813125 L58.9483484,52.7165802 C57.0217542,51.4948898 52.1253612,49.0725117 49.9753148,48.277381 Z M0.125920931,31.1315075 C0.591542533,26.0955243 1.83881599,21.7137512 3.85294999,18.0381466 C4.89042066,16.1448612 7.01440881,12.9701607 7.24361391,12.9701607 C7.33246775,12.9701607 8.57928935,13.5691743 10.0143285,14.301302 C17.3422222,18.039844 25.8611096,21.2394535 31.6130701,21.2394535 C32.2892407,21.2394535 32.664891,21.2394535 32.740021,21.2394535 C32.7544774,22.4610854 32.7617055,24.3367825 32.7617055,26.8665449 L32.7617055,32.3974398 L16.3808523,32.4454297 L0,32.4934197 L0.125920931,31.1315075 Z M35.0719925,26.860196 L35.0719925,21.2291006 L36.0081787,21.2394535 C42.5910362,21.2394535 51.4438745,18.6482346 58.4995692,14.3819359 C59.6128791,13.708761 60.6163065,13.1579228 60.7294056,13.1579228 C61.0113708,13.1579228 63.1015376,16.2892639 64.0798603,18.1774658 C66.1442907,22.1619043 67.3341183,26.3047588 67.6921325,30.755036 L67.8318124,32.4912914 L51.4519014,32.4912914 L35.0719925,32.4912914 L35.0719925,26.860196 Z M35.0719925,0 L36.2816767,0.119280585 C40.4715815,0.532424683 43.6579557,1.27494348 46.7817457,2.56610686 C51.2062988,4.39491686 54.6118352,6.62052717 57.8140752,9.77603305 C59.6152905,11.5509605 59.7552491,11.1858267 56.5560026,13.0581984 C52.2080188,15.6028741 47.6111622,17.4166626 43.2010774,18.3276706 C41.3501317,18.7100274 37.6268973,19.1509243 36.1849019,19.1585111 L35.0719925,19.1643654 L35.0719925,9.58218281 L35.0719925,0 Z M29.3449092,18.6999658 C25.2975416,18.0747001 20.6007814,16.7190333 16.4991751,14.9921913 C14.2474716,14.0441879 9.19793449,11.5803189 8.85415131,11.2618818 C8.6321925,11.0562873 10.1437221,9.51572928 12.2331349,7.81800538 C16.474117,4.37205311 21.3838357,1.99753573 26.5558083,0.891042369 C28.7306931,0.42574707 32.5299993,-0.0689944791 32.695527,0.0915347137 C32.7412688,0.135894699 32.7721025,4.38207916 32.7640467,9.52750002 L32.7493886,18.8828109 L31.8300288,18.9123328 C31.324378,18.9285684 30.2060699,18.8330058 29.3448989,18.6999658 L29.3449092,18.6999658 Z" id="path3414"></path>
            </g>
            <path d="M68.5,20.5 C95.8380951,20.5 118,42.2141896 118,69 C118,95.7858104 95.8380951,117.5 68.5,117.5 C41.1619049,117.5 19,95.7858104 19,69 C19,42.2141896 41.1619049,20.5 68.5,20.5 Z M68.5,28.968254 C45.9352231,28.968254 27.6428571,46.8910772 27.6428571,69 C27.6428571,91.1089228 45.9352231,109.031746 68.5,109.031746 C91.0647769,109.031746 109.357143,91.1089228 109.357143,69 C109.357143,46.8910772 91.0647769,28.968254 68.5,28.968254 Z" id="Combined-Shape" fill="#CACACA"></path>
            <rect id="Rectangle" fill="#CACACA" x="65" y="116.5" width="9" height="40"></rect>
            <polygon id="Rectangle-Copy-5" fill="#CACACA" transform="translate(69.500000, 141.500000) rotate(-90.000000) translate(-69.500000, -141.500000) " points="65 125.5 74 125.5 74 157.5 65 157.5"></polygon>
            <polygon id="Rectangle-Copy-2" fill="#CACACA" transform="translate(117.934159, 20.701134) rotate(-315.000000) translate(-117.934159, -20.701134) " points="113.953691 0.0997837189 122.53178 -0.0283045164 121.914627 41.3024843 113.336539 41.4305725"></polygon>
            <path d="M138,31.5 L129.2,31.5 L129.199,9.749 L106,9.75 L106,1.5 L138,1.5 L138,31.5 Z" id="Combined-Shape" fill="#CACACA"></path>
            <polygon id="Rectangle-Copy-2" fill="#CACACA" transform="translate(19.432432, 20.972727) rotate(-405.000000) translate(-19.432432, -20.972727) " points="14.82899 -0.146624332 23.4070782 -0.0185360963 24.035875 42.0920789 15.4577868 41.9639906"></polygon>
            <path d="M31,1.5 L31,9.75 L30.999,9.749 L31,31.5 L22.2,31.5 L22.199,9.749 L-1,9.75 L-1,1.5 L31,1.5 Z" id="Combined-Shape" fill="#CACACA" transform="translate(15.000000, 16.500000) rotate(-90.000000) translate(-15.000000, -16.500000) "></path>
            <polygon id="Rectangle-Copy" fill="#CACACA" transform="translate(25.012500, 25.620421) rotate(-135.000000) translate(-25.012500, -25.620421) " points="20.9563436 10.0879413 29.5344318 9.95985308 29.0686564 41.1529012 20.4905682 41.2809894"></polygon>
        </g>
        <path d="M163.704,39 L163.704,-0.088 L155.864,-0.088 L155.864,39 L163.704,39 Z M179.048,39 L179.048,-0.088 L171.208,-0.088 L171.208,39 L179.048,39 Z M194.392,39 L194.392,-0.088 L186.552,-0.088 L186.552,39 L194.392,39 Z M218.08,39 L218.08,6.24 L228.496,6.24 L228.496,-0.088 L199.824,-0.088 L199.824,6.24 L210.24,6.24 L210.24,39 L218.08,39 Z M250.84,39 C253.490667,39 255.786667,38.552 257.728,37.656 C259.669333,36.76 261.153333,35.5186667 262.18,33.932 C263.206667,32.3453333 263.72,30.5066667 263.72,28.416 C263.72,26.1013333 263.010667,24.048 261.592,22.256 C260.173333,20.464 258.362667,19.3626667 256.16,18.952 C258.176,18.3173333 259.790667,17.2346667 261.004,15.704 C262.217333,14.1733333 262.824,12.2693333 262.824,9.992 C262.824,8.05066667 262.329333,6.31466667 261.34,4.784 C260.350667,3.25333333 258.894667,2.05866667 256.972,1.2 C255.049333,0.341333333 252.762667,-0.088 250.112,-0.088 L250.112,-0.088 L233.984,-0.088 L233.984,39 L250.84,39 Z M248.992,16.04 L241.824,16.04 L241.824,6.24 L248.992,6.24 C250.858667,6.24 252.296,6.66933333 253.304,7.528 C254.312,8.38666667 254.816,9.6 254.816,11.168 C254.816,12.736 254.312,13.94 253.304,14.78 C252.296,15.62 250.858667,16.04 248.992,16.04 L248.992,16.04 Z M249.72,32.616 L241.824,32.616 L241.824,22.088 L249.552,22.088 C251.456,22.088 252.968,22.564 254.088,23.516 C255.208,24.468 255.768,25.784 255.768,27.464 C255.768,29.1066667 255.236,30.376 254.172,31.272 C253.108,32.168 251.624,32.616 249.72,32.616 L249.72,32.616 Z M173.952,97.336 C177.312,97.336 180.345333,96.636 183.052,95.236 C185.758667,93.836 187.970667,91.9786667 189.688,89.664 C191.405333,87.3493333 192.525333,84.8293333 193.048,82.104 L193.048,82.104 L193.048,75.272 L171.88,75.272 L171.88,81.264 L185.32,81.264 C184.722667,84.1013333 183.472,86.3133333 181.568,87.9 C179.664,89.4866667 177.218667,90.28 174.232,90.28 C171.805333,90.28 169.677333,89.7573333 167.848,88.712 C166.018667,87.6666667 164.590667,86.1733333 163.564,84.232 C162.537333,82.2906667 162.024,80.0133333 162.024,77.4 C162.024,74.8613333 162.528,72.6213333 163.536,70.68 C164.544,68.7386667 165.944,67.2453333 167.736,66.2 C169.528,65.1546667 171.581333,64.632 173.896,64.632 C175.986667,64.632 177.816,65.0613333 179.384,65.92 C180.952,66.7786667 182.184,68.0293333 183.08,69.672 L183.08,69.672 L192.096,69.672 C190.864,65.7893333 188.624,62.7746667 185.376,60.628 C182.128,58.4813333 178.301333,57.408 173.896,57.408 C170.162667,57.408 166.774667,58.2573333 163.732,59.956 C160.689333,61.6546667 158.3,64.0253333 156.564,67.068 C154.828,70.1106667 153.96,73.5546667 153.96,77.4 C153.96,81.2453333 154.828,84.68 156.564,87.704 C158.3,90.728 160.689333,93.0893333 163.732,94.788 C166.774667,96.4866667 170.181333,97.336 173.952,97.336 Z M212.2,97.504 C215.896,97.504 219.013333,96.5426667 221.552,94.62 C224.090667,92.6973333 225.808,90.2426667 226.704,87.256 L226.704,87.256 L218.248,87.256 C217.016,89.7573333 214.944,91.008 212.032,91.008 C210.016,91.008 208.317333,90.3733333 206.936,89.104 C205.554667,87.8346667 204.770667,86.08 204.584,83.84 L204.584,83.84 L227.264,83.84 C227.413333,82.944 227.488,81.936 227.488,80.816 C227.488,77.792 226.844,75.1133333 225.556,72.78 C224.268,70.4466667 222.457333,68.6453333 220.124,67.376 C217.790667,66.1066667 215.149333,65.472 212.2,65.472 C209.138667,65.472 206.432,66.1253333 204.08,67.432 C201.728,68.7386667 199.898667,70.6053333 198.592,73.032 C197.285333,75.4586667 196.632,78.2773333 196.632,81.488 C196.632,84.6613333 197.294667,87.4613333 198.62,89.888 C199.945333,92.3146667 201.793333,94.1906667 204.164,95.516 C206.534667,96.8413333 209.213333,97.504 212.2,97.504 Z M219.368,78.576 L204.64,78.576 C204.938667,76.4853333 205.750667,74.852 207.076,73.676 C208.401333,72.5 210.034667,71.912 211.976,71.912 C214.029333,71.912 215.765333,72.5186667 217.184,73.732 C218.602667,74.9453333 219.330667,76.56 219.368,78.576 L219.368,78.576 Z M240.816,97 L240.816,79.864 C240.816,77.4 241.441333,75.5053333 242.692,74.18 C243.942667,72.8546667 245.650667,72.192 247.816,72.192 C249.944,72.192 251.624,72.8546667 252.856,74.18 C254.088,75.5053333 254.704,77.4 254.704,79.864 L254.704,79.864 L254.704,97 L262.544,97 L262.544,78.8 C262.544,74.6186667 261.405333,71.3613333 259.128,69.028 C256.850667,66.6946667 253.864,65.528 250.168,65.528 C248.226667,65.528 246.444,65.9106667 244.82,66.676 C243.196,67.4413333 241.861333,68.496 240.816,69.84 L240.816,69.84 L240.816,65.976 L232.976,65.976 L232.976,97 L240.816,97 Z M281.92,97.504 C284.234667,97.504 286.269333,97.0373333 288.024,96.104 C289.778667,95.1706667 291.141333,93.9386667 292.112,92.408 L292.112,92.408 L292.112,97 L300.064,97 L300.064,55.56 L292.112,55.56 L292.112,70.288 C291.029333,68.832 289.573333,67.6653333 287.744,66.788 C285.914667,65.9106667 283.992,65.472 281.976,65.472 C279.325333,65.472 276.917333,66.1253333 274.752,67.432 C272.586667,68.7386667 270.878667,70.6053333 269.628,73.032 C268.377333,75.4586667 267.752,78.24 267.752,81.376 C267.752,84.5493333 268.377333,87.3586667 269.628,89.804 C270.878667,92.2493333 272.586667,94.144 274.752,95.488 C276.917333,96.832 279.306667,97.504 281.92,97.504 Z M283.936,90.616 C282.517333,90.616 281.182667,90.2426667 279.932,89.496 C278.681333,88.7493333 277.673333,87.676 276.908,86.276 C276.142667,84.876 275.76,83.2426667 275.76,81.376 C275.76,79.5093333 276.142667,77.8946667 276.908,76.532 C277.673333,75.1693333 278.672,74.1333333 279.904,73.424 C281.136,72.7146667 282.48,72.36 283.936,72.36 C285.392,72.36 286.754667,72.724 288.024,73.452 C289.293333,74.18 290.301333,75.2253333 291.048,76.588 C291.794667,77.9506667 292.168,79.584 292.168,81.488 C292.168,83.392 291.794667,85.0253333 291.048,86.388 C290.301333,87.7506667 289.293333,88.796 288.024,89.524 C286.754667,90.252 285.392,90.616 283.936,90.616 Z M321.064,97.504 C324.76,97.504 327.877333,96.5426667 330.416,94.62 C332.954667,92.6973333 334.672,90.2426667 335.568,87.256 L335.568,87.256 L327.112,87.256 C325.88,89.7573333 323.808,91.008 320.896,91.008 C318.88,91.008 317.181333,90.3733333 315.8,89.104 C314.418667,87.8346667 313.634667,86.08 313.448,83.84 L313.448,83.84 L336.128,83.84 C336.277333,82.944 336.352,81.936 336.352,80.816 C336.352,77.792 335.708,75.1133333 334.42,72.78 C333.132,70.4466667 331.321333,68.6453333 328.988,67.376 C326.654667,66.1066667 324.013333,65.472 321.064,65.472 C318.002667,65.472 315.296,66.1253333 312.944,67.432 C310.592,68.7386667 308.762667,70.6053333 307.456,73.032 C306.149333,75.4586667 305.496,78.2773333 305.496,81.488 C305.496,84.6613333 306.158667,87.4613333 307.484,89.888 C308.809333,92.3146667 310.657333,94.1906667 313.028,95.516 C315.398667,96.8413333 318.077333,97.504 321.064,97.504 Z M328.232,78.576 L313.504,78.576 C313.802667,76.4853333 314.614667,74.852 315.94,73.676 C317.265333,72.5 318.898667,71.912 320.84,71.912 C322.893333,71.912 324.629333,72.5186667 326.048,73.732 C327.466667,74.9453333 328.194667,76.56 328.232,78.576 L328.232,78.576 Z M349.68,97 L349.68,81.544 C349.68,78.6693333 350.305333,76.6533333 351.556,75.496 C352.806667,74.3386667 354.664,73.76 357.128,73.76 L357.128,73.76 L359.2,73.76 L359.2,65.528 C357.109333,65.528 355.252,65.9946667 353.628,66.928 C352.004,67.8613333 350.688,69.1493333 349.68,70.792 L349.68,70.792 L349.68,65.976 L341.84,65.976 L341.84,97 L349.68,97 Z M395.264,97.336 C399.669333,97.336 403.505333,96.2253333 406.772,94.004 C410.038667,91.7826667 412.325333,88.6746667 413.632,84.68 L413.632,84.68 L404.616,84.68 C403.72,86.5466667 402.46,87.956 400.836,88.908 C399.212,89.86 397.336,90.336 395.208,90.336 C392.930667,90.336 390.905333,89.804 389.132,88.74 C387.358667,87.676 385.977333,86.164 384.988,84.204 C383.998667,82.244 383.504,79.976 383.504,77.4 C383.504,74.7866667 383.998667,72.5093333 384.988,70.568 C385.977333,68.6266667 387.358667,67.124 389.132,66.06 C390.905333,64.996 392.930667,64.464 395.208,64.464 C397.336,64.464 399.212,64.9306667 400.836,65.864 C402.46,66.7973333 403.72,68.1973333 404.616,70.064 L404.616,70.064 L413.632,70.064 C412.325333,66.1066667 410.029333,63.008 406.744,60.768 C403.458667,58.528 399.632,57.408 395.264,57.408 C391.530667,57.408 388.161333,58.2573333 385.156,59.956 C382.150667,61.6546667 379.78,64.0253333 378.044,67.068 C376.308,70.1106667 375.44,73.5546667 375.44,77.4 C375.44,81.2453333 376.308,84.68 378.044,87.704 C379.78,90.728 382.150667,93.0893333 385.156,94.788 C388.161333,96.4866667 391.530667,97.336 395.264,97.336 Z M433.68,97.504 C437.376,97.504 440.493333,96.5426667 443.032,94.62 C445.570667,92.6973333 447.288,90.2426667 448.184,87.256 L448.184,87.256 L439.728,87.256 C438.496,89.7573333 436.424,91.008 433.512,91.008 C431.496,91.008 429.797333,90.3733333 428.416,89.104 C427.034667,87.8346667 426.250667,86.08 426.064,83.84 L426.064,83.84 L448.744,83.84 C448.893333,82.944 448.968,81.936 448.968,80.816 C448.968,77.792 448.324,75.1133333 447.036,72.78 C445.748,70.4466667 443.937333,68.6453333 441.604,67.376 C439.270667,66.1066667 436.629333,65.472 433.68,65.472 C430.618667,65.472 427.912,66.1253333 425.56,67.432 C423.208,68.7386667 421.378667,70.6053333 420.072,73.032 C418.765333,75.4586667 418.112,78.2773333 418.112,81.488 C418.112,84.6613333 418.774667,87.4613333 420.1,89.888 C421.425333,92.3146667 423.273333,94.1906667 425.644,95.516 C428.014667,96.8413333 430.693333,97.504 433.68,97.504 Z M440.848,78.576 L426.12,78.576 C426.418667,76.4853333 427.230667,74.852 428.556,73.676 C429.881333,72.5 431.514667,71.912 433.456,71.912 C435.509333,71.912 437.245333,72.5186667 438.664,73.732 C440.082667,74.9453333 440.810667,76.56 440.848,78.576 L440.848,78.576 Z M462.296,97 L462.296,55.56 L454.456,55.56 L454.456,97 L462.296,97 Z M477.64,97 L477.64,55.56 L469.8,55.56 L469.8,97 L477.64,97 Z M163.704,155 L163.704,139.992 L170.256,139.992 C173.466667,139.992 176.126667,139.432 178.236,138.312 C180.345333,137.192 181.894667,135.717333 182.884,133.888 C183.873333,132.058667 184.368,130.098667 184.368,128.008 C184.368,125.693333 183.836,123.621333 182.772,121.792 C181.708,119.962667 180.112,118.525333 177.984,117.48 C175.856,116.434667 173.28,115.912 170.256,115.912 L170.256,115.912 L155.864,115.912 L155.864,155 L163.704,155 Z M169.92,133.664 L163.704,133.664 L163.704,122.296 L169.92,122.296 C174.176,122.296 176.304,124.2 176.304,128.008 C176.304,129.8 175.781333,131.190667 174.736,132.18 C173.690667,133.169333 172.085333,133.664 169.92,133.664 L169.92,133.664 Z M203.464,155.504 C206.488,155.504 209.222667,154.841333 211.668,153.516 C214.113333,152.190667 216.054667,150.314667 217.492,147.888 C218.929333,145.461333 219.648,142.661333 219.648,139.488 C219.648,136.314667 218.948,133.514667 217.548,131.088 C216.148,128.661333 214.234667,126.785333 211.808,125.46 C209.381333,124.134667 206.674667,123.472 203.688,123.472 C200.701333,123.472 197.994667,124.134667 195.568,125.46 C193.141333,126.785333 191.228,128.661333 189.828,131.088 C188.428,133.514667 187.728,136.314667 187.728,139.488 C187.728,142.661333 188.409333,145.461333 189.772,147.888 C191.134667,150.314667 193.010667,152.190667 195.4,153.516 C197.789333,154.841333 200.477333,155.504 203.464,155.504 Z M203.464,148.672 C201.224,148.672 199.366667,147.878667 197.892,146.292 C196.417333,144.705333 195.68,142.437333 195.68,139.488 C195.68,136.538667 196.436,134.270667 197.948,132.684 C199.46,131.097333 201.336,130.304 203.576,130.304 C205.816,130.304 207.710667,131.097333 209.26,132.684 C210.809333,134.270667 211.584,136.538667 211.584,139.488 C211.584,141.466667 211.210667,143.146667 210.464,144.528 C209.717333,145.909333 208.718667,146.945333 207.468,147.636 C206.217333,148.326667 204.882667,148.672 203.464,148.672 Z M233.032,155 L233.032,139.544 C233.032,136.669333 233.657333,134.653333 234.908,133.496 C236.158667,132.338667 238.016,131.76 240.48,131.76 L240.48,131.76 L242.552,131.76 L242.552,123.528 C240.461333,123.528 238.604,123.994667 236.98,124.928 C235.356,125.861333 234.04,127.149333 233.032,128.792 L233.032,128.792 L233.032,123.976 L225.192,123.976 L225.192,155 L233.032,155 Z M263.664,155 L263.664,148.392 L260.024,148.392 C258.829333,148.392 257.98,148.158667 257.476,147.692 C256.972,147.225333 256.72,146.469333 256.72,145.424 L256.72,145.424 L256.72,130.416 L263.664,130.416 L263.664,123.976 L256.72,123.976 L256.72,116.304 L248.824,116.304 L248.824,123.976 L245.128,123.976 L245.128,130.416 L248.824,130.416 L248.824,145.368 C248.824,151.789333 252.128,155 258.736,155 L258.736,155 L263.664,155 Z M281.192,155.504 C283.506667,155.504 285.550667,155.028 287.324,154.076 C289.097333,153.124 290.488,151.92 291.496,150.464 L291.496,150.464 L291.496,155 L299.392,155 L299.392,123.976 L291.496,123.976 L291.496,128.4 C290.450667,126.981333 289.06,125.805333 287.324,124.872 C285.588,123.938667 283.562667,123.472 281.248,123.472 C278.597333,123.472 276.198667,124.125333 274.052,125.432 C271.905333,126.738667 270.206667,128.605333 268.956,131.032 C267.705333,133.458667 267.08,136.24 267.08,139.376 C267.08,142.549333 267.705333,145.358667 268.956,147.804 C270.206667,150.249333 271.905333,152.144 274.052,153.488 C276.198667,154.832 278.578667,155.504 281.192,155.504 Z M283.264,148.616 C281.845333,148.616 280.510667,148.242667 279.26,147.496 C278.009333,146.749333 277.001333,145.676 276.236,144.276 C275.470667,142.876 275.088,141.242667 275.088,139.376 C275.088,137.509333 275.470667,135.894667 276.236,134.532 C277.001333,133.169333 278,132.133333 279.232,131.424 C280.464,130.714667 281.808,130.36 283.264,130.36 C284.72,130.36 286.082667,130.724 287.352,131.452 C288.621333,132.18 289.629333,133.225333 290.376,134.588 C291.122667,135.950667 291.496,137.584 291.496,139.488 C291.496,141.392 291.122667,143.025333 290.376,144.388 C289.629333,145.750667 288.621333,146.796 287.352,147.524 C286.082667,148.252 284.72,148.616 283.264,148.616 Z M314.68,155 L314.68,113.56 L306.84,113.56 L306.84,155 L314.68,155 Z M325.656,155.392 C327.037333,155.392 328.176,154.953333 329.072,154.076 C329.968,153.198667 330.416,152.106667 330.416,150.8 C330.416,149.493333 329.968,148.401333 329.072,147.524 C328.176,146.646667 327.037333,146.208 325.656,146.208 C324.237333,146.208 323.070667,146.646667 322.156,147.524 C321.241333,148.401333 320.784,149.493333 320.784,150.8 C320.784,152.106667 321.241333,153.198667 322.156,154.076 C323.070667,154.953333 324.237333,155.392 325.656,155.392 Z" id="IIITBGenderCellPortal." fill="#5C5C5C" fill-rule="nonzero"></path>
    </g>
</svg>