<?xml version="1.0" encoding="UTF-8"?>
<svg width="463px" height="221px" viewBox="0 0 463 221" version="1.1" xmlns="http://www.w3.org/2000/svg" xmlns:xlink="http://www.w3.org/1999/xlink">
    <title>vectorlogo</title>
    <g id="logo" stroke="none" stroke-width="1" fill="none" fill-rule="evenodd">
        <path d="M240.964171,88.6852853 C245.15983,88.6852853 248.947578,87.836001 252.327414,86.1374324 C255.707251,84.4388639 258.469393,82.1854296 260.613841,79.3771297 C262.758289,76.5688297 264.156842,73.5114063 264.8095,70.2048595 L264.8095,70.2048595 L264.8095,61.9158451 L238.376848,61.9158451 L238.376848,69.1857184 L255.159484,69.1857184 C254.413589,72.6281507 252.851872,75.3118889 250.474332,77.2369333 C248.096791,79.1619776 245.043284,80.1244998 241.313809,80.1244998 C238.283611,80.1244998 235.62636,79.4903676 233.342057,78.222103 C231.057754,76.9538385 229.274599,75.1420321 227.992592,72.7866837 C226.710585,70.4313353 226.069582,67.6683305 226.069582,64.4976692 C226.069582,61.4175983 226.69893,58.6998886 227.957628,56.3445402 C229.216326,53.9891919 230.964517,52.1773854 233.202202,50.9091209 C235.439887,49.6408564 238.003901,49.0067241 240.894243,49.0067241 C243.504876,49.0067241 245.789179,49.5276185 247.747153,50.5694072 C249.705127,51.6111959 251.243536,53.1285838 252.362378,55.1215709 L252.362378,55.1215709 L263.62073,55.1215709 C262.082321,50.4108741 259.285215,46.7532899 255.229412,44.1488181 C251.173608,41.5443464 246.395219,40.2421105 240.894243,40.2421105 C236.2324,40.2421105 232.001777,41.2725754 228.202375,43.3335052 C224.402973,45.394435 221.419393,48.2706778 219.251636,51.9622334 C217.083879,55.653789 216,59.8322676 216,64.4976692 C216,69.1630708 217.083879,73.3302257 219.251636,76.9991337 C221.419393,80.6680417 224.402973,83.5329607 228.202375,85.5938905 C232.001777,87.6548203 236.255709,88.6852853 240.964171,88.6852853 Z M286.867789,88.8891135 C291.483014,88.8891135 295.375653,87.7227631 298.545706,85.3900623 C301.71576,83.0573615 303.860208,80.0792047 304.97905,76.4555918 L304.97905,76.4555918 L294.419975,76.4555918 C292.881567,79.4903676 290.294243,81.0077555 286.658006,81.0077555 C284.14061,81.0077555 282.019472,80.2377377 280.294589,78.6977022 C278.569707,77.1576668 277.59072,75.0287942 277.357628,72.3110845 L277.357628,72.3110845 L305.678327,72.3110845 C305.8648,71.2240007 305.958037,70.0010313 305.958037,68.6421765 C305.958037,64.9732684 305.153869,61.7233406 303.545533,58.8923931 C301.937197,56.0614455 299.676203,53.875954 296.762551,52.3359185 C293.848899,50.795883 290.550645,50.0258653 286.867789,50.0258653 C283.045077,50.0258653 279.665241,50.8185306 276.728279,52.4038612 C273.791318,53.9891919 271.507015,56.2539499 269.87537,59.1981354 C268.243724,62.1423209 267.427902,65.5621055 267.427902,69.4574894 C267.427902,73.3075781 268.255379,76.7047152 269.910333,79.6489006 C271.565288,82.5930861 273.8729,84.8691679 276.833171,86.4771462 C279.793441,88.0851244 283.138314,88.8891135 286.867789,88.8891135 Z M295.818528,65.9244668 L277.427556,65.9244668 C277.800503,63.3879378 278.814454,61.4062745 280.469409,59.9794769 C282.124363,58.5526793 284.163919,57.8392806 286.588078,57.8392806 C289.152092,57.8392806 291.319849,58.5753269 293.091349,60.0474197 C294.86285,61.5195124 295.771909,63.4785281 295.818528,65.9244668 L295.818528,65.9244668 Z M320.74385,88.2776288 L320.74385,67.4871499 C320.74385,64.4976692 321.524709,62.1989398 323.086427,60.5909616 C324.648144,58.9829834 326.780937,58.1789943 329.484807,58.1789943 C332.142057,58.1789943 334.239887,58.9829834 335.778295,60.5909616 C337.316703,62.1989398 338.085908,64.4976692 338.085908,67.4871499 L338.085908,67.4871499 L338.085908,88.2776288 L347.875779,88.2776288 L347.875779,66.1962378 C347.875779,61.1231797 346.453916,57.1711769 343.610192,54.3402294 C340.766467,51.5092818 337.036993,50.093808 332.421768,50.093808 C329.997609,50.093808 327.771579,50.5580834 325.743677,51.4866342 C323.715775,52.415185 322.049166,53.6947733 320.74385,55.3253991 L320.74385,55.3253991 L320.74385,50.6373499 L310.953979,50.6373499 L310.953979,88.2776288 L320.74385,88.2776288 Z M370.213778,88.8891135 C373.104121,88.8891135 375.644825,88.322924 377.835892,87.1905449 C380.026958,86.0581659 381.728531,84.5634256 382.94061,82.706324 L382.94061,82.706324 L382.94061,88.2776288 L392.870337,88.2776288 L392.870337,38 L382.94061,38 L382.94061,55.8689411 C381.588676,54.1024298 379.770557,52.686956 377.486254,51.6225197 C375.20195,50.5580834 372.801101,50.0258653 370.283706,50.0258653 C366.973797,50.0258653 363.966908,50.8185306 361.263039,52.4038612 C358.55917,53.9891919 356.426376,56.2539499 354.864659,59.1981354 C353.302941,62.1423209 352.522082,65.5168104 352.522082,69.3216039 C352.522082,73.1716926 353.302941,76.5801535 354.864659,79.5469865 C356.426376,82.5138196 358.55917,84.812549 361.263039,86.4431748 C363.966908,88.0738006 366.950488,88.8891135 370.213778,88.8891135 Z M372.731173,80.5321563 C370.959673,80.5321563 369.293064,80.0792047 367.731346,79.1733014 C366.169629,78.2673982 364.910931,76.9651623 363.955253,75.2665938 C362.999575,73.5680252 362.521736,71.5863619 362.521736,69.3216039 C362.521736,67.0568458 362.999575,65.0978301 363.955253,63.4445567 C364.910931,61.7912834 366.157974,60.5343426 367.696383,59.6737346 C369.234791,58.8131265 370.913054,58.3828225 372.731173,58.3828225 C374.549292,58.3828225 376.250865,58.8244503 377.835892,59.707706 C379.420919,60.5909616 380.679616,61.8592261 381.611985,63.5124995 C382.544354,65.1657729 383.010538,67.1474362 383.010538,69.4574894 C383.010538,71.7675426 382.544354,73.7492059 381.611985,75.4024793 C380.679616,77.0557527 379.420919,78.3240172 377.835892,79.2072728 C376.250865,80.0905284 374.549292,80.5321563 372.731173,80.5321563 Z M417.236238,88.8891135 C421.851463,88.8891135 425.744102,87.7227631 428.914155,85.3900623 C432.084209,83.0573615 434.228657,80.0792047 435.347499,76.4555918 L435.347499,76.4555918 L424.788424,76.4555918 C423.250016,79.4903676 420.662693,81.0077555 417.026455,81.0077555 C414.509059,81.0077555 412.387921,80.2377377 410.663039,78.6977022 C408.938157,77.1576668 407.95917,75.0287942 407.726077,72.3110845 L407.726077,72.3110845 L436.046776,72.3110845 C436.233249,71.2240007 436.326486,70.0010313 436.326486,68.6421765 C436.326486,64.9732684 435.522318,61.7233406 433.913982,58.8923931 C432.305646,56.0614455 430.044652,53.875954 427.131,52.3359185 C424.217348,50.795883 420.919094,50.0258653 417.236238,50.0258653 C413.413526,50.0258653 410.03369,50.8185306 407.096729,52.4038612 C404.159767,53.9891919 401.875464,56.2539499 400.243819,59.1981354 C398.612174,62.1423209 397.796351,65.5621055 397.796351,69.4574894 C397.796351,73.3075781 398.623828,76.7047152 400.278783,79.6489006 C401.933737,82.5930861 404.241349,84.8691679 407.20162,86.4771462 C410.161891,88.0851244 413.506763,88.8891135 417.236238,88.8891135 Z M426.186977,65.9244668 L407.796005,65.9244668 C408.168953,63.3879378 409.182903,61.4062745 410.837858,59.9794769 C412.492812,58.5526793 414.532369,57.8392806 416.956527,57.8392806 C419.520541,57.8392806 421.688298,58.5753269 423.459799,60.0474197 C425.231299,61.5195124 426.140359,63.4785281 426.186977,65.9244668 L426.186977,65.9244668 Z M451.112299,88.2776288 L451.112299,69.5254321 C451.112299,66.0377047 451.893158,63.591766 453.454876,62.187616 C455.016593,60.783466 457.33586,60.081391 460.412677,60.081391 L460.412677,60.081391 L463,60.081391 L463,50.093808 C460.389368,50.093808 458.070101,50.6599975 456.042199,51.7923766 C454.014297,52.9247556 452.370997,54.4874386 451.112299,56.4804257 L451.112299,56.4804257 L451.112299,50.6373499 L441.322428,50.6373499 L441.322428,88.2776288 L451.112299,88.2776288 Z M240.754388,154.740729 C246.255363,154.740729 251.045407,153.393197 255.12452,150.698135 C259.203633,148.003073 262.059012,144.232251 263.690657,139.385669 L263.690657,139.385669 L252.432306,139.385669 C251.313463,141.650427 249.740091,143.360319 247.712189,144.515346 C245.684288,145.670373 243.341711,146.247886 240.684461,146.247886 C237.840736,146.247886 235.311686,145.60243 233.09731,144.311518 C230.882935,143.020606 229.158053,141.186152 227.922664,138.808156 C226.687276,136.43016 226.069582,133.678479 226.069582,130.553112 C226.069582,127.382451 226.687276,124.619446 227.922664,122.264098 C229.158053,119.90875 230.882935,118.085619 233.09731,116.794707 C235.311686,115.503795 237.840736,114.858339 240.684461,114.858339 C243.341711,114.858339 245.684288,115.424529 247.712189,116.556908 C249.740091,117.689287 251.313463,119.387855 252.432306,121.652613 L252.432306,121.652613 L263.690657,121.652613 C262.059012,116.851326 259.191979,113.091828 255.089556,110.374118 C250.987134,107.656409 246.208745,106.297554 240.754388,106.297554 C236.092545,106.297554 231.885231,107.328019 228.132447,109.388948 C224.379663,111.449878 221.419393,114.326121 219.251636,118.017677 C217.083879,121.709232 216,125.887711 216,130.553112 C216,135.218514 217.083879,139.385669 219.251636,143.054577 C221.419393,146.723485 224.379663,149.588404 228.132447,151.649334 C231.885231,153.710264 236.092545,154.740729 240.754388,154.740729 Z M286.867789,154.944557 C291.483014,154.944557 295.375653,153.778206 298.545706,151.445506 C301.71576,149.112805 303.860208,146.134648 304.97905,142.511035 L304.97905,142.511035 L294.419975,142.511035 C292.881567,145.545811 290.294243,147.063199 286.658006,147.063199 C284.14061,147.063199 282.019472,146.293181 280.294589,144.753145 C278.569707,143.21311 277.59072,141.084237 277.357628,138.366528 L277.357628,138.366528 L305.678327,138.366528 C305.8648,137.279444 305.958037,136.056475 305.958037,134.69762 C305.958037,131.028712 305.153869,127.778784 303.545533,124.947836 C301.937197,122.116889 299.676203,119.931397 296.762551,118.391362 C293.848899,116.851326 290.550645,116.081309 286.867789,116.081309 C283.045077,116.081309 279.665241,116.873974 276.728279,118.459304 C273.791318,120.044635 271.507015,122.309393 269.87537,125.253579 C268.243724,128.197764 267.427902,131.617549 267.427902,135.512933 C267.427902,139.363021 268.255379,142.760158 269.910333,145.704344 C271.565288,148.648529 273.8729,150.924611 276.833171,152.532589 C279.793441,154.140568 283.138314,154.944557 286.867789,154.944557 Z M295.818528,131.97991 L277.427556,131.97991 C277.800503,129.443381 278.814454,127.461718 280.469409,126.03492 C282.124363,124.608123 284.163919,123.894724 286.588078,123.894724 C289.152092,123.894724 291.319849,124.63077 293.091349,126.102863 C294.86285,127.574956 295.771909,129.533971 295.818528,131.97991 L295.818528,131.97991 Z M320.74385,154.333072 L320.74385,104.055443 L310.953979,104.055443 L310.953979,154.333072 L320.74385,154.333072 Z M338.047059,154.333072 L338.047059,104.055443 L328.257188,104.055443 L328.257188,154.333072 L338.047059,154.333072 Z M228.167411,220.388515 L228.167411,202.179861 L236.348946,202.179861 C240.358131,202.179861 243.679695,201.500433 246.313636,200.141578 C248.947578,198.782723 250.882243,196.993565 252.117631,194.774102 C253.35302,192.554639 253.970714,190.176643 253.970714,187.640114 C253.970714,184.831814 253.306401,182.317932 251.977776,180.09847 C250.649151,177.879007 248.656213,176.135143 245.998962,174.866878 C243.341711,173.598614 240.125039,172.964482 236.348946,172.964482 L236.348946,172.964482 L218.37754,172.964482 L218.37754,220.388515 L228.167411,220.388515 Z M235.92938,194.502331 L228.167411,194.502331 L228.167411,180.709954 L235.92938,180.709954 C241.243882,180.709954 243.901132,183.020007 243.901132,187.640114 C243.901132,189.814282 243.248474,191.501526 241.943158,192.701848 C240.637842,193.90217 238.633249,194.502331 235.92938,194.502331 L235.92938,194.502331 Z M275.959075,221 C279.735168,221 283.149969,220.196011 286.203476,218.588033 C289.256983,216.980054 291.681142,214.703973 293.475952,211.759787 C295.270761,208.815602 296.168166,205.418465 296.168166,201.568376 C296.168166,197.718287 295.29407,194.32115 293.545879,191.376965 C291.797688,188.432779 289.408493,186.156697 286.378295,184.548719 C283.348097,182.940741 279.96826,182.136752 276.238786,182.136752 C272.509311,182.136752 269.129475,182.940741 266.099277,184.548719 C263.069078,186.156697 260.679884,188.432779 258.931692,191.376965 C257.183501,194.32115 256.309405,197.718287 256.309405,201.568376 C256.309405,205.418465 257.160192,208.815602 258.861765,211.759787 C260.563338,214.703973 262.905914,216.980054 265.889494,218.588033 C268.873073,220.196011 272.229601,221 275.959075,221 Z M275.959075,212.710986 C273.161969,212.710986 270.842702,211.748463 269.001274,209.823419 C267.159846,207.898375 266.239132,205.146694 266.239132,201.568376 C266.239132,197.990058 267.183155,195.238377 269.071202,193.313333 C270.959248,191.388288 273.301824,190.425766 276.09893,190.425766 C278.896036,190.425766 281.261922,191.388288 283.196587,193.313333 C285.131252,195.238377 286.098584,197.990058 286.098584,201.568376 C286.098584,203.969019 285.6324,206.007302 284.700031,207.683223 C283.767663,209.359144 282.52062,210.616084 280.958902,211.454045 C279.397185,212.292005 277.730576,212.710986 275.959075,212.710986 Z M311.023907,220.388515 L311.023907,201.636319 C311.023907,198.148591 311.804766,195.702653 313.366483,194.298503 C314.928201,192.894353 317.247468,192.192278 320.324284,192.192278 L320.324284,192.192278 L322.911607,192.192278 L322.911607,182.204695 C320.300975,182.204695 317.981708,182.770884 315.953806,183.903263 C313.925904,185.035642 312.282605,186.598325 311.023907,188.591312 L311.023907,188.591312 L311.023907,182.748236 L301.234036,182.748236 L301.234036,220.388515 L311.023907,220.388515 Z M347.417364,220.388515 L347.417364,212.371272 L342.872067,212.371272 C341.380277,212.371272 340.319707,212.088177 339.690359,211.521988 C339.06101,210.955798 338.746335,210.038571 338.746335,208.770307 L338.746335,208.770307 L338.746335,190.561652 L347.417364,190.561652 L347.417364,182.748236 L338.746335,182.748236 L338.746335,173.440081 L328.886537,173.440081 L328.886537,182.748236 L324.271312,182.748236 L324.271312,190.561652 L328.886537,190.561652 L328.886537,208.702364 C328.886537,216.493131 333.012268,220.388515 341.263731,220.388515 L341.263731,220.388515 L347.417364,220.388515 Z M367.447751,221 C370.338094,221 372.890453,220.422487 375.104829,219.26746 C377.319204,218.112433 379.055741,216.651665 380.314439,214.885153 L380.314439,214.885153 L380.314439,220.388515 L390.174237,220.388515 L390.174237,182.748236 L380.314439,182.748236 L380.314439,188.115713 C379.009122,186.394497 377.272586,184.967699 375.104829,183.83532 C372.937071,182.702941 370.408021,182.136752 367.517679,182.136752 C364.20777,182.136752 361.212535,182.929417 358.531975,184.514748 C355.851416,186.100078 353.730277,188.364836 352.168559,191.309022 C350.606842,194.253207 349.825983,197.627697 349.825983,201.43249 C349.825983,205.282579 350.606842,208.69104 352.168559,211.657873 C353.730277,214.624706 355.851416,216.923436 358.531975,218.554061 C361.212535,220.184687 364.184461,221 367.447751,221 Z M370.035074,212.643043 C368.263573,212.643043 366.596964,212.190091 365.035247,211.284188 C363.473529,210.378285 362.214832,209.076049 361.259154,207.37748 C360.303476,205.678912 359.825637,203.697248 359.825637,201.43249 C359.825637,199.167732 360.303476,197.208717 361.259154,195.555443 C362.214832,193.90217 363.461875,192.645229 365.000283,191.784621 C366.538691,190.924013 368.216955,190.493709 370.035074,190.493709 C371.853193,190.493709 373.554766,190.935337 375.139792,191.818592 C376.724819,192.701848 377.983517,193.970113 378.915885,195.623386 C379.848254,197.276659 380.314439,199.258323 380.314439,201.568376 C380.314439,203.878429 379.848254,205.860092 378.915885,207.513366 C377.983517,209.166639 376.724819,210.434904 375.139792,211.318159 C373.554766,212.201415 371.853193,212.643043 370.035074,212.643043 Z M407.407518,220.388515 L407.407518,170.110887 L397.617647,170.110887 L397.617647,220.388515 L407.407518,220.388515 Z M419.25637,220.864115 C420.981252,220.864115 422.403114,220.331896 423.521957,219.26746 C424.640799,218.203024 425.20022,216.87814 425.20022,215.29281 C425.20022,213.707479 424.640799,212.382596 423.521957,211.318159 C422.403114,210.253723 420.981252,209.721505 419.25637,209.721505 C417.484869,209.721505 416.028043,210.253723 414.885892,211.318159 C413.74374,212.382596 413.172664,213.707479 413.172664,215.29281 C413.172664,216.87814 413.74374,218.203024 414.885892,219.26746 C416.028043,220.331896 417.484869,220.864115 419.25637,220.864115 Z" id="GenderCellPortal." fill="#5C5C5C" fill-rule="nonzero"></path>
        <g id="Group">
            <g id="Globe" transform="translate(49.000000, 50.000000)" fill="#7FA2BB" fill-rule="nonzero">
                <path d="M42.4189903,93.0891708 C32.1820737,91.8221022 22.5890649,87.445305 15.4120327,80.7672861 L12.4849173,78.0436913 L18.0530045,75.3737933 C24.1365326,72.45674 29.2581624,70.5054409 34.1097741,69.2562976 C37.4221767,68.4034509 42.644382,67.4719496 44.7934522,67.3506147 L46.078178,67.2780825 L46.109356,77.9625149 C46.1265302,83.8389524 46.1307148,89.6870201 46.1186841,90.9582164 L46.0968604,93.2694883 L44.666584,93.2299102 C43.8799332,93.2081587 42.8685241,93.1448117 42.4190106,93.0891708 L42.4189903,93.0891708 Z M49.3660399,80.1943009 L49.3660399,67.1191136 L50.8751606,67.1191136 C55.2525494,67.1191136 61.3863412,68.1955412 66.7707889,69.9086644 C72.3331769,71.6784006 82.8753379,76.9644602 82.8753379,77.983824 C82.8753379,78.4714318 78.8362459,82.1720455 76.294738,84.0129614 C69.8464114,88.6837473 62.2071836,91.787297 54.5073084,92.8644347 C52.9147781,93.0872154 51.1065008,93.2694883 50.4889185,93.2694883 L49.3660399,93.2694883 L49.3660399,80.1943009 Z M4.97462676,67.0257372 C2.3611686,61.7530525 0.767211478,56.0805153 0.231997401,50.1477831 L0.0949775513,48.6289497 L23.0959088,48.6289497 L46.0968401,48.6289497 L46.0999785,49.4874201 C46.1241793,56.1180065 46.1187341,61.0177104 46.083643,64.1865318 C45.7636776,64.1420666 45.0763007,64.1420666 44.0215123,64.1865318 C40.3731271,64.3403314 29.9565885,67.0209276 22.3951473,70.0895426 C19.5508066,71.2438472 12.5840499,74.5897709 11.482771,75.3304284 C11.0999012,75.587927 10.6546542,75.7178499 10.4933333,75.6191483 C9.78545682,75.1860432 6.42813537,69.958211 4.97462676,67.0257372 Z M70.3434053,67.9383187 C64.2540891,65.6868606 56.7984944,64.2135164 51.494719,64.2135164 L49.3660399,64.2135164 L49.3660399,56.421233 L49.3660399,48.6289497 L72.4083394,48.6289497 L95.450639,48.6289497 L95.2744073,50.4119283 C94.6506818,56.722336 92.9294175,62.6586296 90.161992,68.0436218 C89.275013,69.7695507 86.7131256,73.6929705 85.7300322,74.8309813 L85.1149403,75.5429984 L82.9735156,74.1853794 C80.2617129,72.4661562 73.3697312,69.057266 70.3434053,67.9383187 Z M0.177241647,43.8097973 C0.832633397,36.7229126 2.5882494,30.5566648 5.42326995,25.3841721 C6.8835753,22.7198473 9.87322249,18.2522518 10.1958431,18.2522518 C10.3209105,18.2522518 12.0758905,19.0952133 14.0957985,20.1254996 C24.4102707,25.3865609 36.4011417,29.8892097 44.4973886,29.8892097 C45.4491413,29.8892097 45.9778928,29.8892097 46.083643,29.8892097 C46.1039913,31.6083505 46.1141654,34.2479243 46.1141654,37.8079309 L46.1141654,45.5912799 L23.0570821,45.6588137 L0,45.7263475 L0.177241647,43.8097973 Z M49.3660399,37.7989965 L49.3660399,29.8746405 L50.6837809,29.8892097 C59.9495678,29.8892097 72.4104956,26.2427181 82.3418306,20.2389716 C83.9088845,19.2916466 85.3212718,18.5164798 85.4804659,18.5164798 C85.8773496,18.5164798 88.8193912,22.9230579 90.1964421,25.580229 C93.102258,31.1873281 94.7770153,37.0173577 95.2809428,43.280008 L95.477551,45.7233525 L72.421794,45.7233525 L49.3660399,45.7233525 L49.3660399,37.7989965 Z M49.3660399,0 L51.0687466,0.16785754 C56.9663017,0.749254351 61.4513242,1.79416354 65.8482556,3.61115251 C72.0760928,6.1847444 76.8695999,9.31673333 81.3769546,13.7573173 C83.9122787,16.255083 84.1092792,15.7412486 79.6061381,18.3761428 C73.4860769,21.9571363 67.0157115,24.5095892 60.8082392,25.7916046 C58.2029165,26.3296762 52.9622294,26.950128 50.93253,26.9608045 L49.3660399,26.9690431 L49.3660399,13.4845217 L49.3660399,0 Z M41.3048092,26.3155168 C35.6078842,25.4356121 28.9968982,23.5278507 23.2236288,21.0977532 C20.0542142,19.7636759 12.9466725,16.2963976 12.462776,15.8482772 C12.150355,15.5589543 14.2779281,13.391005 17.2189084,11.0018839 C23.188358,6.15256941 30.0990965,2.81103109 37.3789739,1.2539189 C40.4402613,0.599132337 45.7880242,-0.0970924439 46.021015,0.128812177 C46.0853993,0.191237743 46.1287998,6.16667856 46.1174607,13.4075693 L46.0968284,26.5728255 L44.8027716,26.6143703 C44.0910363,26.6372178 42.5169471,26.5027373 41.3047947,26.3155168 L41.3048092,26.3155168 Z" id="path3414"></path>
            </g>
            <path d="M97,28 C135.659932,28 167,58.6684946 167,96.5 C167,134.331505 135.659932,165 97,165 C58.3400675,165 27,134.331505 27,96.5 C27,58.6684946 58.3400675,28 97,28 Z M97,39.9603175 C65.0902145,39.9603175 39.2222222,65.2739956 39.2222222,96.5 C39.2222222,127.726004 65.0902145,153.039683 97,153.039683 C128.909786,153.039683 154.777778,127.726004 154.777778,96.5 C154.777778,65.2739956 128.909786,39.9603175 97,39.9603175 Z" id="Combined-Shape" fill="#CACACA"></path>
            <rect id="Rectangle" fill="#CACACA" x="92" y="163" width="12" height="57"></rect>
            <polygon id="Rectangle-Copy-5" fill="#CACACA" transform="translate(98.000000, 197.500000) rotate(-90.000000) translate(-98.000000, -197.500000) " points="92 175 104 175 104 220 92 220"></polygon>
            <polygon id="Rectangle-Copy-2" fill="#CACACA" transform="translate(166.035669, 27.783650) rotate(-315.000000) translate(-166.035669, -27.783650) " points="160.402336 -1.24968284 172.489241 -1.41992094 171.669003 56.8169838 159.582098 56.9872219"></polygon>
            <path d="M194,44 L181.625,44 L181.624,12.824 L149,12.825 L149,1 L194,1 L194,44 Z" id="Combined-Shape" fill="#CACACA"></path>
            <polygon id="Rectangle-Copy-2" fill="#CACACA" transform="translate(27.358290, 28.166667) rotate(-405.000000) translate(-27.358290, -28.166667) " points="20.8969805 -1.58630952 32.9838853 -1.41607143 33.8195996 57.9196429 21.7326948 57.7494048"></polygon>
            <path d="M44,1 L44,12.825 L43.999,12.824 L44,44 L31.625,44 L31.624,12.824 L-1,12.825 L-1,1 L44,1 Z" id="Combined-Shape" fill="#CACACA" transform="translate(21.500000, 22.500000) rotate(-90.000000) translate(-21.500000, -22.500000) "></path>
            <polygon id="Rectangle-Copy" fill="#CACACA" transform="translate(35.214286, 34.721107) rotate(-135.000000) translate(-35.214286, -34.721107) " points="29.4803571 12.8300355 41.5672619 12.6597974 40.9482143 56.6121783 28.8613095 56.7824164"></polygon>
        </g>
        <text id="IIITB’s" font-family="Poppins-SemiBold, Poppins" font-size="36" font-weight="500" letter-spacing="-0.144" fill="#5C5C5C">
            <tspan x="216" y="25">IIITB’s</tspan>
        </text>
    </g>
</svg>