<?xml version="1.0" encoding="UTF-8"?>
<svg width="554px" height="324px" viewBox="0 0 554 324" version="1.1" xmlns="http://www.w3.org/2000/svg" xmlns:xlink="http://www.w3.org/1999/xlink">
    <title>vectorlogo</title>
    <g id="logo" stroke="none" stroke-width="1" fill="none" fill-rule="evenodd">
        <g id="Group-2" transform="translate(40.000000, 46.000000)">
            <path d="M224.724,67.432 C229.044,67.432 232.944,66.532 236.424,64.732 C239.904,62.932 242.748,60.544 244.956,57.568 C247.164,54.592 248.604,51.352 249.276,47.848 L249.276,47.848 L249.276,39.064 L222.06,39.064 L222.06,46.768 L239.34,46.768 C238.572,50.416 236.964,53.26 234.516,55.3 C232.068,57.34 228.924,58.36 225.084,58.36 C221.964,58.36 219.228,57.688 216.876,56.344 C214.524,55 212.688,53.08 211.368,50.584 C210.048,48.088 209.388,45.16 209.388,41.8 C209.388,38.536 210.036,35.656 211.332,33.16 C212.628,30.664 214.428,28.744 216.732,27.4 C219.036,26.056 221.676,25.384 224.652,25.384 C227.34,25.384 229.692,25.936 231.708,27.04 C233.724,28.144 235.308,29.752 236.46,31.864 L236.46,31.864 L248.052,31.864 C246.468,26.872 243.588,22.996 239.412,20.236 C235.236,17.476 230.316,16.096 224.652,16.096 C219.852,16.096 215.496,17.188 211.584,19.372 C207.672,21.556 204.6,24.604 202.368,28.516 C200.136,32.428 199.02,36.856 199.02,41.8 C199.02,46.744 200.136,51.16 202.368,55.048 C204.6,58.936 207.672,61.972 211.584,64.156 C215.496,66.34 219.876,67.432 224.724,67.432 Z M271.988,67.648 C276.74,67.648 280.748,66.412 284.012,63.94 C287.276,61.468 289.484,58.312 290.636,54.472 L290.636,54.472 L279.764,54.472 C278.18,57.688 275.516,59.296 271.772,59.296 C269.18,59.296 266.996,58.48 265.22,56.848 C263.444,55.216 262.436,52.96 262.196,50.08 L262.196,50.08 L291.356,50.08 C291.548,48.928 291.644,47.632 291.644,46.192 C291.644,42.304 290.816,38.86 289.16,35.86 C287.504,32.86 285.176,30.544 282.176,28.912 C279.176,27.28 275.78,26.464 271.988,26.464 C268.052,26.464 264.572,27.304 261.548,28.984 C258.524,30.664 256.172,33.064 254.492,36.184 C252.812,39.304 251.972,42.928 251.972,47.056 C251.972,51.136 252.824,54.736 254.528,57.856 C256.232,60.976 258.608,63.388 261.656,65.092 C264.704,66.796 268.148,67.648 271.988,67.648 Z M281.204,43.312 L262.268,43.312 C262.652,40.624 263.696,38.524 265.4,37.012 C267.104,35.5 269.204,34.744 271.7,34.744 C274.34,34.744 276.572,35.524 278.396,37.084 C280.22,38.644 281.156,40.72 281.204,43.312 L281.204,43.312 Z M306.868,67 L306.868,44.968 C306.868,41.8 307.672,39.364 309.28,37.66 C310.888,35.956 313.084,35.104 315.868,35.104 C318.604,35.104 320.764,35.956 322.348,37.66 C323.932,39.364 324.724,41.8 324.724,44.968 L324.724,44.968 L324.724,67 L334.804,67 L334.804,43.6 C334.804,38.224 333.34,34.036 330.412,31.036 C327.484,28.036 323.644,26.536 318.892,26.536 C316.396,26.536 314.104,27.028 312.016,28.012 C309.928,28.996 308.212,30.352 306.868,32.08 L306.868,32.08 L306.868,27.112 L296.788,27.112 L296.788,67 L306.868,67 Z M357.804,67.648 C360.78,67.648 363.396,67.048 365.652,65.848 C367.908,64.648 369.66,63.064 370.908,61.096 L370.908,61.096 L370.908,67 L381.132,67 L381.132,13.72 L370.908,13.72 L370.908,32.656 C369.516,30.784 367.644,29.284 365.292,28.156 C362.94,27.028 360.468,26.464 357.876,26.464 C354.468,26.464 351.372,27.304 348.588,28.984 C345.804,30.664 343.608,33.064 342,36.184 C340.392,39.304 339.588,42.88 339.588,46.912 C339.588,50.992 340.392,54.604 342,57.748 C343.608,60.892 345.804,63.328 348.588,65.056 C351.372,66.784 354.444,67.648 357.804,67.648 Z M360.396,58.792 C358.572,58.792 356.856,58.312 355.248,57.352 C353.64,56.392 352.344,55.012 351.36,53.212 C350.376,51.412 349.884,49.312 349.884,46.912 C349.884,44.512 350.376,42.436 351.36,40.684 C352.344,38.932 353.628,37.6 355.212,36.688 C356.796,35.776 358.524,35.32 360.396,35.32 C362.268,35.32 364.02,35.788 365.652,36.724 C367.284,37.66 368.58,39.004 369.54,40.756 C370.5,42.508 370.98,44.608 370.98,47.056 C370.98,49.504 370.5,51.604 369.54,53.356 C368.58,55.108 367.284,56.452 365.652,57.388 C364.02,58.324 362.268,58.792 360.396,58.792 Z M406.22,67.648 C410.972,67.648 414.98,66.412 418.244,63.94 C421.508,61.468 423.716,58.312 424.868,54.472 L424.868,54.472 L413.996,54.472 C412.412,57.688 409.748,59.296 406.004,59.296 C403.412,59.296 401.228,58.48 399.452,56.848 C397.676,55.216 396.668,52.96 396.428,50.08 L396.428,50.08 L425.588,50.08 C425.78,48.928 425.876,47.632 425.876,46.192 C425.876,42.304 425.048,38.86 423.392,35.86 C421.736,32.86 419.408,30.544 416.408,28.912 C413.408,27.28 410.012,26.464 406.22,26.464 C402.284,26.464 398.804,27.304 395.78,28.984 C392.756,30.664 390.404,33.064 388.724,36.184 C387.044,39.304 386.204,42.928 386.204,47.056 C386.204,51.136 387.056,54.736 388.76,57.856 C390.464,60.976 392.84,63.388 395.888,65.092 C398.936,66.796 402.38,67.648 406.22,67.648 Z M415.436,43.312 L396.5,43.312 C396.884,40.624 397.928,38.524 399.632,37.012 C401.336,35.5 403.436,34.744 405.932,34.744 C408.572,34.744 410.804,35.524 412.628,37.084 C414.452,38.644 415.388,40.72 415.436,43.312 L415.436,43.312 Z M441.1,67 L441.1,47.128 C441.1,43.432 441.904,40.84 443.512,39.352 C445.12,37.864 447.508,37.12 450.676,37.12 L450.676,37.12 L453.34,37.12 L453.34,26.536 C450.652,26.536 448.264,27.136 446.176,28.336 C444.088,29.536 442.396,31.192 441.1,33.304 L441.1,33.304 L441.1,27.112 L431.02,27.112 L431.02,67 L441.1,67 Z M224.508,137.432 C230.172,137.432 235.104,136.004 239.304,133.148 C243.504,130.292 246.444,126.296 248.124,121.16 L248.124,121.16 L236.532,121.16 C235.38,123.56 233.76,125.372 231.672,126.596 C229.584,127.82 227.172,128.432 224.436,128.432 C221.508,128.432 218.904,127.748 216.624,126.38 C214.344,125.012 212.568,123.068 211.296,120.548 C210.024,118.028 209.388,115.112 209.388,111.8 C209.388,108.44 210.024,105.512 211.296,103.016 C212.568,100.52 214.344,98.588 216.624,97.22 C218.904,95.852 221.508,95.168 224.436,95.168 C227.172,95.168 229.584,95.768 231.672,96.968 C233.76,98.168 235.38,99.968 236.532,102.368 L236.532,102.368 L248.124,102.368 C246.444,97.28 243.492,93.296 239.268,90.416 C235.044,87.536 230.124,86.096 224.508,86.096 C219.708,86.096 215.376,87.188 211.512,89.372 C207.648,91.556 204.6,94.604 202.368,98.516 C200.136,102.428 199.02,106.856 199.02,111.8 C199.02,116.744 200.136,121.16 202.368,125.048 C204.6,128.936 207.648,131.972 211.512,134.156 C215.376,136.34 219.708,137.432 224.508,137.432 Z M271.988,137.648 C276.74,137.648 280.748,136.412 284.012,133.94 C287.276,131.468 289.484,128.312 290.636,124.472 L290.636,124.472 L279.764,124.472 C278.18,127.688 275.516,129.296 271.772,129.296 C269.18,129.296 266.996,128.48 265.22,126.848 C263.444,125.216 262.436,122.96 262.196,120.08 L262.196,120.08 L291.356,120.08 C291.548,118.928 291.644,117.632 291.644,116.192 C291.644,112.304 290.816,108.86 289.16,105.86 C287.504,102.86 285.176,100.544 282.176,98.912 C279.176,97.28 275.78,96.464 271.988,96.464 C268.052,96.464 264.572,97.304 261.548,98.984 C258.524,100.664 256.172,103.064 254.492,106.184 C252.812,109.304 251.972,112.928 251.972,117.056 C251.972,121.136 252.824,124.736 254.528,127.856 C256.232,130.976 258.608,133.388 261.656,135.092 C264.704,136.796 268.148,137.648 271.988,137.648 Z M281.204,113.312 L262.268,113.312 C262.652,110.624 263.696,108.524 265.4,107.012 C267.104,105.5 269.204,104.744 271.7,104.744 C274.34,104.744 276.572,105.524 278.396,107.084 C280.22,108.644 281.156,110.72 281.204,113.312 L281.204,113.312 Z M306.868,137 L306.868,83.72 L296.788,83.72 L296.788,137 L306.868,137 Z M324.684,137 L324.684,83.72 L314.604,83.72 L314.604,137 L324.684,137 Z M211.548,207 L211.548,187.704 L219.972,187.704 C224.1,187.704 227.52,186.984 230.232,185.544 C232.944,184.104 234.936,182.208 236.208,179.856 C237.48,177.504 238.116,174.984 238.116,172.296 C238.116,169.32 237.432,166.656 236.064,164.304 C234.696,161.952 232.644,160.104 229.908,158.76 C227.172,157.416 223.86,156.744 219.972,156.744 L219.972,156.744 L201.468,156.744 L201.468,207 L211.548,207 Z M219.54,179.568 L211.548,179.568 L211.548,164.952 L219.54,164.952 C225.012,164.952 227.748,167.4 227.748,172.296 C227.748,174.6 227.076,176.388 225.732,177.66 C224.388,178.932 222.324,179.568 219.54,179.568 L219.54,179.568 Z M260.756,207.648 C264.644,207.648 268.16,206.796 271.304,205.092 C274.448,203.388 276.944,200.976 278.792,197.856 C280.64,194.736 281.564,191.136 281.564,187.056 C281.564,182.976 280.664,179.376 278.864,176.256 C277.064,173.136 274.604,170.724 271.484,169.02 C268.364,167.316 264.884,166.464 261.044,166.464 C257.204,166.464 253.724,167.316 250.604,169.02 C247.484,170.724 245.024,173.136 243.224,176.256 C241.424,179.376 240.524,182.976 240.524,187.056 C240.524,191.136 241.4,194.736 243.152,197.856 C244.904,200.976 247.316,203.388 250.388,205.092 C253.46,206.796 256.916,207.648 260.756,207.648 Z M260.756,198.864 C257.876,198.864 255.488,197.844 253.592,195.804 C251.696,193.764 250.748,190.848 250.748,187.056 C250.748,183.264 251.72,180.348 253.664,178.308 C255.608,176.268 258.02,175.248 260.9,175.248 C263.78,175.248 266.216,176.268 268.208,178.308 C270.2,180.348 271.196,183.264 271.196,187.056 C271.196,189.6 270.716,191.76 269.756,193.536 C268.796,195.312 267.512,196.644 265.904,197.532 C264.296,198.42 262.58,198.864 260.756,198.864 Z M296.86,207 L296.86,187.128 C296.86,183.432 297.664,180.84 299.272,179.352 C300.88,177.864 303.268,177.12 306.436,177.12 L306.436,177.12 L309.1,177.12 L309.1,166.536 C306.412,166.536 304.024,167.136 301.936,168.336 C299.848,169.536 298.156,171.192 296.86,173.304 L296.86,173.304 L296.86,167.112 L286.78,167.112 L286.78,207 L296.86,207 Z M334.332,207 L334.332,198.504 L329.652,198.504 C328.116,198.504 327.024,198.204 326.376,197.604 C325.728,197.004 325.404,196.032 325.404,194.688 L325.404,194.688 L325.404,175.392 L334.332,175.392 L334.332,167.112 L325.404,167.112 L325.404,157.248 L315.252,157.248 L315.252,167.112 L310.5,167.112 L310.5,175.392 L315.252,175.392 L315.252,194.616 C315.252,202.872 319.5,207 327.996,207 L327.996,207 L334.332,207 Z M354.956,207.648 C357.932,207.648 360.56,207.036 362.84,205.812 C365.12,204.588 366.908,203.04 368.204,201.168 L368.204,201.168 L368.204,207 L378.356,207 L378.356,167.112 L368.204,167.112 L368.204,172.8 C366.86,170.976 365.072,169.464 362.84,168.264 C360.608,167.064 358.004,166.464 355.028,166.464 C351.62,166.464 348.536,167.304 345.776,168.984 C343.016,170.664 340.832,173.064 339.224,176.184 C337.616,179.304 336.812,182.88 336.812,186.912 C336.812,190.992 337.616,194.604 339.224,197.748 C340.832,200.892 343.016,203.328 345.776,205.056 C348.536,206.784 351.596,207.648 354.956,207.648 Z M357.62,198.792 C355.796,198.792 354.08,198.312 352.472,197.352 C350.864,196.392 349.568,195.012 348.584,193.212 C347.6,191.412 347.108,189.312 347.108,186.912 C347.108,184.512 347.6,182.436 348.584,180.684 C349.568,178.932 350.852,177.6 352.436,176.688 C354.02,175.776 355.748,175.32 357.62,175.32 C359.492,175.32 361.244,175.788 362.876,176.724 C364.508,177.66 365.804,179.004 366.764,180.756 C367.724,182.508 368.204,184.608 368.204,187.056 C368.204,189.504 367.724,191.604 366.764,193.356 C365.804,195.108 364.508,196.452 362.876,197.388 C361.244,198.324 359.492,198.792 357.62,198.792 Z M396.1,207 L396.1,153.72 L386.02,153.72 L386.02,207 L396.1,207 Z M408.3,207.504 C410.076,207.504 411.54,206.94 412.692,205.812 C413.844,204.684 414.42,203.28 414.42,201.6 C414.42,199.92 413.844,198.516 412.692,197.388 C411.54,196.26 410.076,195.696 408.3,195.696 C406.476,195.696 404.976,196.26 403.8,197.388 C402.624,198.516 402.036,199.92 402.036,201.6 C402.036,203.28 402.624,204.684 403.8,205.812 C404.976,206.94 406.476,207.504 408.3,207.504 Z" id="GenderCellPortal." fill="#5C5C5C" fill-rule="nonzero"></path>
            <g id="Group" transform="translate(0.000000, 11.949747)">
                <g id="Globe" transform="translate(45.000000, 46.050253)" fill="#7FA2BB" fill-rule="nonzero">
                    <path d="M38.2082817,85.8337366 C28.9875296,84.6654242 20.346768,80.6297576 13.8821618,74.4722281 L11.2456057,71.9609121 L16.2609783,69.4991079 C21.7406268,66.8094117 26.3538595,65.0101982 30.7238774,63.858414 C33.7074754,63.0720388 38.4113,62.2131393 40.3470434,62.1012613 L41.5042412,62.0343823 L41.5323243,71.8860627 C41.5477938,77.3044866 41.5515629,82.6967518 41.5407265,83.8688702 L41.5210691,86 L40.2327687,85.9635066 C39.5242045,85.9434505 38.6131927,85.8850408 38.2083,85.8337366 L38.2082817,85.8337366 Z M44.4657344,73.9439018 L44.4657344,61.8878036 L45.8250528,61.8878036 C49.7679213,61.8878036 55.2928441,62.8803337 60.1428062,64.4599348 C65.1530454,66.0917366 74.6487419,70.9657971 74.6487419,71.905711 C74.6487419,72.3553143 71.0105891,75.7674996 68.7213633,77.4649332 C62.9131279,81.7716748 56.0322058,84.6333317 49.0966565,85.6265165 C47.6622082,85.8319336 46.033429,86 45.4771508,86 L44.4657344,86 L44.4657344,73.9439018 Z M4.4808219,61.801705 C2.1267879,56.9399769 0.691054456,51.7095612 0.208968248,46.2392303 L0.0855496326,44.8387758 L20.8033002,44.8387758 L41.5210508,44.8387758 L41.5238777,45.6303365 C41.5456762,51.7441304 41.5407716,56.261948 41.5091638,59.1837892 C41.2209596,59.1427897 40.601815,59.1427897 39.6517298,59.1837892 C36.3655005,59.3256016 26.9829565,61.7972703 20.1720996,64.6267153 C17.6101015,65.6910526 11.3348979,68.7761927 10.3429371,69.4591229 C9.9980728,69.6965518 9.59702311,69.8163484 9.45171567,69.7253397 C8.81410633,69.3259911 5.79004841,64.5056197 4.4808219,61.801705 Z M63.3607879,62.6431593 C57.8759259,60.5671813 51.1604086,59.2086706 46.3831109,59.2086706 L44.4657344,59.2086706 L44.4657344,52.0237232 L44.4657344,44.8387758 L65.2207469,44.8387758 L85.9757594,44.8387758 L85.8170213,46.4827879 C85.2552097,52.301358 83.7048062,57.7749727 81.2120883,62.7402549 C80.4131551,64.3316638 78.1055727,67.9492895 77.2200658,68.998603 L76.6660308,69.655125 L74.737174,68.4033198 C72.2945576,66.818094 66.0867064,63.674895 63.3607879,62.6431593 Z M0.159647807,40.3952315 C0.749982288,33.8607035 2.33132759,28.1750573 4.88493065,23.4057122 C6.20027922,20.9490467 8.89315996,16.8296587 9.18375574,16.8296587 C9.29640834,16.8296587 10.8771808,17.6069192 12.6965833,18.5569043 C21.9871924,23.4079148 32.7877931,27.5596241 40.0803684,27.5596241 C40.9376456,27.5596241 41.4139108,27.5596241 41.5091638,27.5596241 C41.5274921,29.1447739 41.5366563,31.5786174 41.5366563,34.8611547 L41.5366563,42.0378641 L20.7683276,42.1001342 L0,42.1624044 L0.159647807,40.3952315 Z M44.4657344,34.8529166 L44.4657344,27.5461904 L45.6526703,27.5596241 C53.9986916,27.5596241 65.2226891,24.1973426 74.168193,18.6615322 C75.5796938,17.7880424 76.8518809,17.0732926 76.9952726,17.0732926 C77.3527598,17.0732926 80.0027604,21.136419 81.2431188,23.5864883 C83.8604897,28.7565662 85.3690027,34.1321993 85.822908,39.9067343 L86,42.1596428 L65.2328659,42.1596428 L44.4657344,42.1596428 L44.4657344,34.8529166 Z M44.4657344,0 L45.9994225,0.154774608 C51.3115585,0.69085695 55.3513766,1.65432519 59.3118478,3.32969679 C64.9214807,5.70270116 69.2391617,8.5905807 73.2990952,12.6850625 C75.582751,14.9881506 75.7601963,14.5143648 71.7040582,16.9438935 C66.1915031,20.2457819 60.3634166,22.5992949 54.7721272,23.7813892 C52.4254211,24.277523 47.7049493,24.8496164 45.8767274,24.8594608 L44.4657344,24.8670572 L44.4657344,12.4335287 L44.4657344,0 Z M37.2046995,24.2644673 C32.073278,23.453143 26.1185296,21.6940738 20.9183421,19.4533797 C18.0635385,18.2232814 11.6615249,15.0262451 11.2256622,14.6130515 C10.9442536,14.3462787 12.8606338,12.3473008 15.5096785,10.1443895 C20.8865725,5.6730339 27.1113186,2.59193739 33.6685611,1.15618759 C36.4259707,0.552435549 41.2428894,-0.0895249918 41.4527524,0.118772467 C41.5107457,0.176332541 41.549838,5.68604338 41.5396245,12.3625741 L41.5210403,24.5017212 L40.3554377,24.5400279 C39.7143526,24.5610947 38.2965149,24.4370957 37.2046864,24.2644673 L37.2046995,24.2644673 Z" id="path3414"></path>
                </g>
                <path d="M88,26.0502525 C122.793939,26.0502525 151,54.2563133 151,89.0502525 C151,123.844192 122.793939,152.050253 88,152.050253 C53.2060608,152.050253 25,123.844192 25,89.0502525 C25,54.2563133 53.2060608,26.0502525 88,26.0502525 Z M88,37.0502525 C59.281193,37.0502525 36,60.3314455 36,89.0502525 C36,117.76906 59.281193,141.050253 88,141.050253 C116.718807,141.050253 140,117.76906 140,89.0502525 C140,60.3314455 116.718807,37.0502525 88,37.0502525 Z" id="Combined-Shape" fill="#CACACA"></path>
                <rect id="Rectangle" fill="#CACACA" x="83" y="150.050253" width="11" height="53"></rect>
                <rect id="Rectangle-Copy-5" fill="#CACACA" transform="translate(88.500000, 182.050253) rotate(-90.000000) translate(-88.500000, -182.050253) " x="83" y="162.050253" width="11" height="40"></rect>
                <rect id="Rectangle-Copy-2" fill="#CACACA" transform="translate(149.903806, 25.646447) rotate(-315.000000) translate(-149.903806, -25.646447) " x="144.403806" y="-0.853553391" width="11" height="53"></rect>
                <path d="M175,0.550252532 L175,11.5502525 L174.999,11.5502525 L175,40.5502525 L164,40.5502525 L163.999,11.5502525 L135,11.5502525 L135,0.550252532 L175,0.550252532 Z" id="Combined-Shape" fill="#CACACA"></path>
                <rect id="Rectangle-Copy-2" fill="#CACACA" transform="translate(25.449747, 26.000000) rotate(-405.000000) translate(-25.449747, -26.000000) " x="19.9497475" y="-1" width="11" height="54"></rect>
                <path d="M40,0.550252532 L40,11.5502525 L39.999,11.5502525 L40,40.5502525 L29,40.5502525 L28.999,11.5502525 L0,11.5502525 L0,0.550252532 L40,0.550252532 Z" id="Combined-Shape" fill="#CACACA" transform="translate(20.000000, 20.550253) rotate(-90.000000) translate(-20.000000, -20.550253) "></path>
                <rect id="Rectangle-Copy" fill="#CACACA" transform="translate(32.500000, 32.050253) rotate(-135.000000) translate(-32.500000, -32.050253) " x="27" y="12.0502525" width="11" height="40"></rect>
            </g>
        </g>
    </g>
</svg>